<svg xmlns="http://www.w3.org/2000/svg" xmlns:xlink="http://www.w3.org/1999/xlink" width="52" height="52" viewBox="0 0 52 52">
    <defs>
        <path id="prefix__a" d="M22 33H51.714V46.929H22z"/>
    </defs>
    <g fill="none" fill-rule="evenodd">
        <path d="M0 0L52 0 52 52 0 52z"/>
        <g transform="translate(.286 2.286)">
            <g>
                <g>
                    <path fill="#61ADED" d="M.464 0L.464 26 7.893 26 7.893 0zM14.393 0L14.393 26 21.821 26 21.821 0zM28.321 0L28.321 26 35.75 26 35.75 0z" transform="translate(.643 .5) translate(6.964 14.857)"/>
                    <path fill="#3F7FCA" d="M.464 1.857L.464 4.643 7.893 4.643 7.893 1.857zM14.393 1.857L14.393 4.643 21.821 4.643 21.821 1.857zM28.321 1.857L28.321 4.643 35.75 4.643 35.75 1.857z" transform="translate(.643 .5) translate(6.964 14.857)"/>
                </g>
                <path fill="#C1E1F9" d="M41.786 46.429L41.786 39 2.786 39 2.786 46.429zM0 16.714L50.143 16.714 25.071 0z" transform="translate(.643 .5)"/>
            </g>
            <mask id="prefix__b" fill="#fff">
                <use xlink:href="#prefix__a"/>
            </mask>
            <path fill="#2D5198" d="M35.4 50.42c-1.353 1.825-3.524 3.009-5.971 3.009C25.326 53.429 22 50.103 22 46s3.326-7.429 7.429-7.429c.115 0 .23.003.344.008.989-3.23 3.994-5.579 7.548-5.579 3.95 0 7.221 2.9 7.802 6.687 3.767.81 6.591 4.16 6.591 8.17 0 4.616-3.741 8.357-8.357 8.357-3.722 0-6.875-2.433-7.957-5.795z" mask="url(#prefix__b)"/>
        </g>
    </g>
</svg>
