<svg xmlns="http://www.w3.org/2000/svg" xmlns:xlink="http://www.w3.org/1999/xlink" width="138" height="16" viewBox="0 0 138 16">
    <defs>
        <path id="6mcydznyga" d="M0.237 0.178L12.219 0.178 12.219 15.2 0.237 15.2z"/>
    </defs>
    <g fill="none" fill-rule="evenodd">
        <g>
            <g>
                <g>
                    <path fill="#A6A6A6" d="M9.544.866L9.544 8.364 4.326.866 0 .866 0 14.875 4.532 14.875 4.532 7.377 9.75 14.875 14.075 14.875 14.075.866zM21.01.866l-5.492 14.01h4.668l.664-1.855h5.264l.664 1.854h4.669L25.954.865H21.01zm2.472 4.414l1.566 4.376h-3.132l1.566-4.376zM46.415.866L46.415 14.875 57.469 14.875 57.469 11.441 50.878 11.441 50.878 9.553 57.263 9.553 57.263 6.188 50.878 6.188 50.878 4.299 57.332 4.299 57.332.866zM40.304.866L37.008 10.077 33.713.866 29.043.866 34.536 14.875 39.48 14.875 44.973.866zM66.395 7.39h-2.403V4.436h2.403c.815 0 1.476.662 1.476 1.477 0 .815-.66 1.477-1.476 1.477zM69.87 9.89c1.628-.681 2.456-2.156 2.456-4.027 0-1.77-.646-3.08-1.918-3.892C69.225 1.217 67.69.866 65.579.866h-5.913v14.01h4.395V10.96h1.579l2.677 3.914h4.67l-3.542-4.806.425-.178zM105.4 11.713c-1.28 0-2.175-.93-2.175-2.26 0-1.33.895-2.26 2.175-2.26 1.281 0 2.176.93 2.176 2.26 0 1.331-.895 2.26-2.176 2.26m0-7.996c-3.492 0-6.026 2.412-6.026 5.736s2.534 5.736 6.026 5.736 6.027-2.412 6.027-5.736-2.535-5.736-6.027-5.736M119.614 10.034c0 .999-.497 1.571-1.363 1.571-.874 0-1.375-.572-1.375-1.57V4.011l-3.948.93v5.249c0 2.99 2.139 4.998 5.323 4.998 3.177 0 5.312-2.009 5.312-4.998V4.01l-3.95.93v5.093z" transform="translate(-160 -903) translate(0 277) translate(160 626)"/>
                    <g transform="translate(-160 -903) translate(0 277) translate(160 626) translate(124.8)">
                        <mask id="s6fcne0j9b" fill="#fff">
                            <use xlink:href="#6mcydznyga"/>
                        </mask>
                        <path fill="#A6A6A6" d="M6.377 11.773c-1.312 0-2.265-.976-2.265-2.32 0-1.344.953-2.32 2.265-2.32 1.313 0 2.265.976 2.265 2.32 0 1.344-.952 2.32-2.265 2.32zM8.311 1.11V4.31c-.729-.39-1.557-.594-2.414-.594-3.28 0-5.66 2.412-5.66 5.736 0 3.33 2.38 5.747 5.66 5.747 1.142 0 2.215-.398 3.032-1.114l.337.761h2.953V.178l-3.908.93z" mask="url(#s6fcne0j9b)"/>
                    </g>
                    <path fill="#A6A6A6" d="M93.453 14.847L97.571 14.847 97.571.181 93.453 1.107zM84.823 11.344c-1.82 0-3.142-1.44-3.142-3.425 0-2.002 1.321-3.456 3.142-3.456 1.186 0 2.206.663 2.73 1.774l3.961-.95c-.984-2.875-3.551-4.66-6.7-4.66-4.2 0-7.367 3.134-7.367 7.292 0 4.145 3.167 7.27 7.367 7.27 3.461 0 6.184-2.158 6.938-5.497l.026-.112h-4.27c-.492 1.105-1.495 1.764-2.685 1.764" transform="translate(-160 -903) translate(0 277) translate(160 626)"/>
                </g>
            </g>
        </g>
    </g>
</svg>
