<?xml version="1.0" encoding="UTF-8"?>
<svg width="44px" height="44px" viewBox="0 0 44 44" version="1.1" xmlns="http://www.w3.org/2000/svg" xmlns:xlink="http://www.w3.org/1999/xlink">
    <title>04BC3AAE-1043-429D-A929-00DC9F7A4163</title>
    <g id="Page-1" stroke="none" stroke-width="1" fill="none" fill-rule="evenodd">
        <g id="2022.03.04-hover-update01" transform="translate(-1401.000000, -3602.000000)" fill="#14ADEA">
            <g id="Customer-Success-Stories" transform="translate(0.000000, 3007.000000)">
                <g id="Customer-Success" transform="translate(1155.000000, 595.000000)">
                    <g id="icon_arrow_round_right_44" transform="translate(246.000000, 0.000000)">
                        <path d="M22,0 C34.1502645,0 44,9.8497355 44,22 C44,34.1502645 34.1502645,44 22,44 C9.8497355,44 0,34.1502645 0,22 C0,9.8497355 9.8497355,0 22,0 Z M22,0.88 C10.3357461,0.88 0.88,10.3357461 0.88,22 C0.88,33.6642539 10.3357461,43.12 22,43.12 C33.6642539,43.12 43.12,33.6642539 43.12,22 C43.12,10.3357461 33.6642539,0.88 22,0.88 Z M20.2181746,14.368 L27.8549278,22.0047532 L26.8366941,23.022987 L20.2181746,29.6415065 L19.1999408,28.6232727 L25.818,22.004 L19.1999408,15.3862338 L20.2181746,14.368 Z" id="Combined-Shape"></path>
                    </g>
                </g>
            </g>
        </g>
    </g>
</svg>