<svg xmlns="http://www.w3.org/2000/svg" width="44" height="44" viewBox="0 0 44 44">
    <g fill="#222" fill-rule="evenodd">
        <path d="M22 44C9.85 44 0 34.15 0 22S9.85 0 22 0s22 9.85 22 22-9.85 22-22 22zm0-.88c11.664 0 21.12-9.456 21.12-21.12C43.12 10.336 33.664.88 22 .88 10.336.88.88 10.336.88 22c0 11.664 9.456 21.12 21.12 21.12z"/>
        <g>
            <path d="M0 0H10.8V1.44H0z" transform="rotate(45 -7.205 31.66)"/>
            <path d="M9.36 0H10.799999999999999V10.8H9.36z" transform="rotate(45 -7.205 31.66)"/>
        </g>
    </g>
</svg>
