<svg width="138" height="16" viewBox="0 0 138 16" xmlns="http://www.w3.org/2000/svg" xmlns:xlink="http://www.w3.org/1999/xlink">
    <defs>
        <path id="rs50osjppa" d="M.237.178h11.982V15.2H.237z"/>
    </defs>
    <g fill="none" fill-rule="evenodd">
        <path fill="#FFF" d="M9.544.866v7.498L4.326.866H0v14.01h4.532V7.376l5.218 7.498h4.325V.865zM21.01.866l-5.492 14.01h4.668l.664-1.855h5.264l.664 1.854h4.669L25.954.865H21.01zm2.472 4.414 1.566 4.376h-3.132l1.566-4.376zM46.415.866v14.01h11.054V11.44h-6.591V9.553h6.385V6.188h-6.385V4.299h6.454V.866zM40.304.866l-3.296 9.211L33.713.866h-4.67l5.493 14.01h4.944L44.973.865zM66.395 7.39h-2.403V4.436h2.403a1.477 1.477 0 0 1 0 2.954zM69.87 9.89c1.628-.681 2.456-2.156 2.456-4.027 0-1.77-.646-3.08-1.918-3.892C69.225 1.217 67.69.866 65.579.866h-5.913v14.01h4.395V10.96h1.579l2.677 3.914h4.67l-3.542-4.806.425-.178zM105.4 11.713c-1.28 0-2.175-.93-2.175-2.26 0-1.33.895-2.26 2.175-2.26 1.281 0 2.176.93 2.176 2.26 0 1.331-.895 2.26-2.176 2.26m0-7.996c-3.492 0-6.026 2.412-6.026 5.736s2.534 5.736 6.026 5.736 6.027-2.412 6.027-5.736-2.535-5.736-6.027-5.736M119.614 10.034c0 .999-.497 1.571-1.363 1.571-.874 0-1.375-.572-1.375-1.57V4.011l-3.948.93v5.249c0 2.99 2.139 4.998 5.323 4.998 3.177 0 5.312-2.009 5.312-4.998V4.01l-3.95.93v5.093z"/>
        <g transform="translate(124.8)">
            <mask id="0pcze9yh7b" fill="#fff">
                <use xlink:href="#rs50osjppa"/>
            </mask>
            <path d="M6.377 11.773c-1.312 0-2.265-.976-2.265-2.32 0-1.344.953-2.32 2.265-2.32 1.313 0 2.265.976 2.265 2.32 0 1.344-.952 2.32-2.265 2.32zM8.311 1.11V4.31a5.12 5.12 0 0 0-2.414-.594c-3.28 0-5.66 2.412-5.66 5.736 0 3.33 2.38 5.747 5.66 5.747 1.142 0 2.215-.398 3.032-1.114l.337.761h2.953V.178l-3.908.93z" fill="#FFF" mask="url(#0pcze9yh7b)"/>
        </g>
        <path fill="#FFF" d="M93.453 14.847h4.118V.181l-4.118.926zM84.823 11.344c-1.82 0-3.142-1.44-3.142-3.425 0-2.002 1.321-3.456 3.142-3.456 1.186 0 2.206.663 2.73 1.774l3.961-.95c-.984-2.875-3.551-4.66-6.7-4.66-4.2 0-7.367 3.134-7.367 7.292 0 4.145 3.167 7.27 7.367 7.27 3.461 0 6.184-2.158 6.938-5.497l.026-.112h-4.27c-.492 1.105-1.495 1.764-2.685 1.764"/>
    </g>
</svg>
